<?xml version="1.0" encoding="UTF-8" standalone="no"?>
<!-- Created with Inkscape (http://www.inkscape.org/) -->

<svg
 width="400"
 height="400"
 viewBox="0 0 105.83333 105.83333"
 version="1.1"
 id="svg8"
 inkscape:version="1.3.2 (1:1.3.2+202311252150+091e20ef0f)"
 sodipodi:docname="logo-white.svg"
 enable-background="new"
 inkscape:export-filename="logo-white.png"
 inkscape:export-xdpi="96"
 inkscape:export-ydpi="96"
 xmlns:inkscape="http://www.inkscape.org/namespaces/inkscape"
 xmlns:sodipodi="http://sodipodi.sourceforge.net/DTD/sodipodi-0.dtd"
 xmlns="http://www.w3.org/2000/svg"
 xmlns:svg="http://www.w3.org/2000/svg"
 xmlns:rdf="http://www.w3.org/1999/02/22-rdf-syntax-ns#"
 xmlns:cc="http://creativecommons.org/ns#"
 xmlns:dc="http://purl.org/dc/elements/1.1/">
<defs
 id="defs2">
<inkscape:path-effect
 effect="fillet_chamfer"
 id="path-effect5"
 is_visible="true"
 lpeversion="1"
 nodesatellites_param="F,0,0,1,0,6,0,1 @ F,0,0,1,0,6,0,1 @ F,0,0,1,0,6,0,1 @ F,0,0,1,0,6,0,1"
 radius="6"
 unit="px"
 method="auto"
 mode="F"
 chamfer_steps="1"
 flexible="false"
 use_knot_distance="true"
 apply_no_radius="true"
 apply_with_radius="true"
 only_selected="false"
 hide_knots="false" />
<inkscape:path-effect
 effect="fillet_chamfer"
 id="path-effect4"
 is_visible="true"
 lpeversion="1"
 nodesatellites_param="F,0,0,1,0,2.3166291,0,1 @ F,0,0,1,0,2.3858119,0,1 @ F,0,0,1,0,0,0,1 @ F,0,0,1,0,0,0,1"
 radius="0"
 unit="px"
 method="auto"
 mode="F"
 chamfer_steps="1"
 flexible="false"
 use_knot_distance="true"
 apply_no_radius="true"
 apply_with_radius="true"
 only_selected="false"
 hide_knots="false" />
<inkscape:path-effect
 effect="fillet_chamfer"
 id="path-effect3"
 is_visible="true"
 lpeversion="1"
 nodesatellites_param="F,0,0,1,0,2.0617551,0,1 @ F,0,0,1,0,0,0,1 @ F,0,0,1,0,0,0,1 @ F,0,0,1,0,1.4322116,0,1"
 radius="0"
 unit="px"
 method="auto"
 mode="F"
 chamfer_steps="1"
 flexible="false"
 use_knot_distance="true"
 apply_no_radius="true"
 apply_with_radius="true"
 only_selected="false"
 hide_knots="false" />
<inkscape:path-effect
 effect="fillet_chamfer"
 id="path-effect2"
 is_visible="true"
 lpeversion="1"
 nodesatellites_param="F,0,0,1,0,4,0,1 @ F,0,0,1,0,4,0,1 @ F,0,0,1,0,4,0,1 @ F,0,0,1,0,4,0,1"
 radius="4"
 unit="px"
 method="auto"
 mode="F"
 chamfer_steps="1"
 flexible="false"
 use_knot_distance="true"
 apply_no_radius="true"
 apply_with_radius="true"
 only_selected="false"
 hide_knots="false" />
<inkscape:path-effect
 effect="fillet_chamfer"
 id="path-effect1"
 is_visible="true"
 lpeversion="1"
 nodesatellites_param="F,0,0,1,0,0,0,1 @ F,0,0,1,0,0,0,1 @ F,0,0,1,0,0,0,1 @ F,0,0,1,0,0,0,1"
 radius="0"
 unit="px"
 method="auto"
 mode="F"
 chamfer_steps="1"
 flexible="false"
 use_knot_distance="true"
 apply_no_radius="true"
 apply_with_radius="true"
 only_selected="false"
 hide_knots="false" />
<inkscape:path-effect
 effect="fillet_chamfer"
 id="path-effect2-3"
 is_visible="true"
 lpeversion="1"
 nodesatellites_param="F,0,0,1,0,2,0,1 @ F,0,0,1,0,2,0,1 @ F,0,0,1,0,2,0,1 @ F,0,0,1,0,2,0,1"
 radius="2"
 unit="px"
 method="auto"
 mode="F"
 chamfer_steps="1"
 flexible="false"
 use_knot_distance="true"
 apply_no_radius="true"
 apply_with_radius="true"
 only_selected="false"
 hide_knots="false" />
<inkscape:path-effect
 effect="fillet_chamfer"
 id="path-effect2-3-7"
 is_visible="true"
 lpeversion="1"
 nodesatellites_param="F,0,0,1,0,4,0,1 @ F,0,0,1,0,4,0,1 @ F,0,0,1,0,4,0,1 @ F,0,0,1,0,4,0,1"
 radius="4"
 unit="px"
 method="auto"
 mode="F"
 chamfer_steps="1"
 flexible="false"
 use_knot_distance="true"
 apply_no_radius="true"
 apply_with_radius="true"
 only_selected="false"
 hide_knots="false" />
<inkscape:path-effect
 effect="fillet_chamfer"
 id="path-effect2-35"
 is_visible="true"
 lpeversion="1"
 nodesatellites_param="F,0,0,1,0,4.3959509,0,1 @ F,0,0,1,0,4,0,1 @ F,0,0,1,0,4,0,1 @ F,0,0,1,0,4,0,1"
 radius="4"
 unit="px"
 method="auto"
 mode="F"
 chamfer_steps="1"
 flexible="false"
 use_knot_distance="true"
 apply_no_radius="true"
 apply_with_radius="true"
 only_selected="false"
 hide_knots="false" />
<inkscape:path-effect
 effect="fillet_chamfer"
 id="path-effect2-3-9"
 is_visible="true"
 lpeversion="1"
 nodesatellites_param="F,0,0,1,0,2,0,1 @ F,0,0,1,0,2,0,1 @ F,0,0,1,0,2,0,1 @ F,0,0,1,0,2,0,1"
 radius="1"
 unit="px"
 method="auto"
 mode="F"
 chamfer_steps="1"
 flexible="false"
 use_knot_distance="true"
 apply_no_radius="true"
 apply_with_radius="true"
 only_selected="false"
 hide_knots="false" />
<inkscape:path-effect
 effect="fillet_chamfer"
 id="path-effect2-3-9-2"
 is_visible="true"
 lpeversion="1"
 nodesatellites_param="F,0,0,1,0,2,0,1 @ F,0,0,1,0,2,0,1 @ F,0,0,1,0,2,0,1 @ F,0,0,1,0,2,0,1"
 radius="1"
 unit="px"
 method="auto"
 mode="F"
 chamfer_steps="1"
 flexible="false"
 use_knot_distance="true"
 apply_no_radius="true"
 apply_with_radius="true"
 only_selected="false"
 hide_knots="false" />
<inkscape:path-effect
 effect="fillet_chamfer"
 id="path-effect2-3-9-2-0"
 is_visible="true"
 lpeversion="1"
 nodesatellites_param="F,0,0,1,0,2,0,1 @ F,0,0,1,0,2,0,1 @ F,0,0,1,0,2,0,1 @ F,0,0,1,0,2,0,1"
 radius="1"
 unit="px"
 method="auto"
 mode="F"
 chamfer_steps="1"
 flexible="false"
 use_knot_distance="true"
 apply_no_radius="true"
 apply_with_radius="true"
 only_selected="false"
 hide_knots="false" />
<inkscape:path-effect
 effect="fillet_chamfer"
 id="path-effect2-3-9-3"
 is_visible="true"
 lpeversion="1"
 nodesatellites_param="F,0,0,1,0,2,0,1 @ F,0,0,1,0,2,0,1 @ F,0,0,1,0,2,0,1 @ F,0,0,1,0,2,0,1"
 radius="1"
 unit="px"
 method="auto"
 mode="F"
 chamfer_steps="1"
 flexible="false"
 use_knot_distance="true"
 apply_no_radius="true"
 apply_with_radius="true"
 only_selected="false"
 hide_knots="false" />
</defs>
<sodipodi:namedview
 id="base"
 pagecolor="#ffffff"
 bordercolor="#666666"
 borderopacity="1.0"
 inkscape:pageopacity="0.0"
 inkscape:pageshadow="2"
 inkscape:zoom="1.6031181"
 inkscape:cx="158.75312"
 inkscape:cy="218.63642"
 inkscape:document-units="px"
 inkscape:current-layer="layer1"
 showgrid="false"
 units="px"
 inkscape:window-width="1916"
 inkscape:window-height="1036"
 inkscape:window-x="0"
 inkscape:window-y="20"
 inkscape:window-maximized="0"
 inkscape:showpageshadow="2"
 inkscape:pagecheckerboard="0"
 inkscape:deskcolor="#d1d1d1" />
<metadata
 id="metadata5">
<rdf:RDF>
<cc:Work
 rdf:about="">
<dc:format>image/svg+xml</dc:format>
<dc:type
 rdf:resource="http://purl.org/dc/dcmitype/StillImage" />
</cc:Work>
</rdf:RDF>
</metadata>
<g
 inkscape:label="Layer 1"
 inkscape:groupmode="layer"
 id="layer1"
 transform="translate(0,-191.16667)"
 style="">
<path
 style="fill:#ffffff;fill-opacity:1;stroke:none;stroke-width:0.79375;stroke-linejoin:round"
 id="rect1"
 width="105.75127"
 height="105.97765"
 x="0.084931023"
 y="191.09654"
 inkscape:path-effect="#path-effect5"
 sodipodi:type="rect"
 d="m 6.084931,191.09654 h 93.751267 a 6,6 45 0 1 6.000002,6 v 93.97766 a 6,6 135 0 1 -6.000002,6 H 6.084931 a 6,6 45 0 1 -5.99999998,-6 v -93.97766 a 6,6 135 0 1 5.99999998,-6 z" />
<path
 style="opacity:1;fill:none;fill-opacity:1;stroke:#000000;stroke-width:0.79375;stroke-miterlimit:4;stroke-dasharray:none;stroke-opacity:1"
 id="rect879"
 width="29.254002"
 height="42.413586"
 x="39.6875"
 y="221.59375"
 sodipodi:type="rect"
 inkscape:path-effect="#path-effect2"
 d="m 43.6875,221.59375 h 21.254002 a 4,4 45 0 1 4,4 v 34.41359 a 4,4 135 0 1 -4,4 H 43.6875 a 4,4 45 0 1 -4,-4 l 0,-34.41359 a 4,4 135 0 1 4,-4 z"
 transform="matrix(1.0818357,0,0,1.1775252,-6.4178695,-34.158073)" />
<path
 style="fill:none;fill-opacity:1;stroke:#000000;stroke-width:0.79375;stroke-miterlimit:4;stroke-dasharray:none;stroke-opacity:1"
 id="rect879-62"
 width="2.206928"
 height="8.7193117"
 x="49.377277"
 y="254.16498"
 sodipodi:type="rect"
 transform="matrix(1.0818357,0,0,1.1775252,-19.283176,-63.348638)"
 inkscape:path-effect="#path-effect3"
 d="m 51.439032,254.16498 h 0.145173 v 8.71931 h -0.774716 a 1.4322116,1.4322116 45 0 1 -1.432212,-1.43221 v -5.22535 a 2.0617551,2.0617551 135 0 1 2.061755,-2.06175 z" />
<path
 style="fill:none;fill-opacity:1;stroke:#000000;stroke-width:0.79375;stroke-miterlimit:4;stroke-dasharray:none;stroke-opacity:1"
 id="rect879-6"
 width="23.672609"
 height="14.36377"
 x="60.656345"
 y="224.97833"
 sodipodi:type="rect"
 inkscape:path-effect="#path-effect2-3"
 d="m 62.656345,224.97833 h 19.67261 a 2,2 45 0 1 2,2 v 10.36377 a 2,2 135 0 1 -2,2 h -19.67261 a 2,2 45 0 1 -2,-2 v -10.36377 a 2,2 135 0 1 2,-2 z"
 transform="matrix(1.0818357,0,0,1.1775252,-26.162342,-34.773639)" />
<path
 style="fill:none;fill-opacity:1;stroke:#000000;stroke-width:0.79375;stroke-miterlimit:4;stroke-dasharray:none;stroke-opacity:1"
 id="rect879-6-1"
 width="4.7730851"
 height="6.8094492"
 x="48.064224"
 y="245.38721"
 sodipodi:type="rect"
 inkscape:path-effect="#path-effect2-3-9"
 d="m 50.064224,245.38721 h 0.773085 a 2,2 45 0 1 2,2 v 2.80945 a 2,2 135 0 1 -2,2 h -0.773085 a 2,2 45 0 1 -2,-2 v -2.80945 a 2,2 135 0 1 2,-2 z"
 transform="matrix(1.0818357,0,0,1.1775252,-12.070107,-39.023652)" />
<path
 style="fill:none;fill-opacity:1;stroke:#000000;stroke-width:0.79375;stroke-miterlimit:4;stroke-dasharray:none;stroke-opacity:1"
 id="rect879-6-1-6"
 width="6.0401754"
 height="4.7065082"
 x="48.064232"
 y="247.75299"
 sodipodi:type="rect"
 transform="matrix(1.0818357,0,0,1.1775252,5.3131466,-70.631329)"
 inkscape:path-effect="#path-effect4"
 d="m 50.380861,247.75299 h 1.337734 a 2.3858119,2.3858119 45 0 1 2.385812,2.38581 v 2.3207 h -6.040175 v -2.38988 a 2.3166291,2.3166291 135 0 1 2.316629,-2.31663 z" />
<path
 style="fill:none;fill-opacity:1;stroke:#000000;stroke-width:0.79375;stroke-miterlimit:4;stroke-dasharray:none;stroke-opacity:1"
 id="rect879-6-1-7"
 width="4.7730851"
 height="6.8094492"
 x="66.335106"
 y="245.88678"
 sodipodi:type="rect"
 inkscape:path-effect="#path-effect2-3-9-2"
 d="m 68.335106,245.88678 h 0.773085 a 2,2 45 0 1 2,2 v 2.80945 a 2,2 135 0 1 -2,2 h -0.773085 a 2,2 45 0 1 -2,-2 v -2.80945 a 2,2 135 0 1 2,-2 z"
 transform="matrix(1.0818357,0,0,1.1775252,-12.427458,-39.461225)" />
<path
 style="fill:none;fill-opacity:1;stroke:#000000;stroke-width:0.79375;stroke-miterlimit:4;stroke-dasharray:none;stroke-opacity:1"
 id="rect879-6-1-7-9"
 width="7.4320755"
 height="6.8094482"
 x="56.145603"
 y="245.81622"
 sodipodi:type="rect"
 inkscape:path-effect="#path-effect2-3-9-2-0"
 d="m 58.145603,245.81622 3.432076,0 a 2,2 45 0 1 2,2 v 2.80945 a 2,2 135 0 1 -2,2 l -3.432076,0 a 2,2 45 0 1 -2,-2 v -2.80945 a 2,2 135 0 1 2,-2 z"
 transform="matrix(1.0818357,0,0,1.1775252,-12.147381,-39.46686)" />
<rect
 style="fill:#000000;fill-opacity:1;stroke:#000000;stroke-width:0.895879;stroke-miterlimit:4;stroke-dasharray:none;stroke-opacity:1"
 id="rect879-6-5"
 width="21.038012"
 height="12.470577"
 x="41.8652"
 y="232.38795"
 sodipodi:type="rect" />
<path
 style="fill:none;stroke:#000000;stroke-width:1.5875;stroke-linecap:butt;stroke-linejoin:miter;stroke-dasharray:none;stroke-opacity:1"
 d="m 61.738793,224.4406 v -3.53464"
 id="path4" />
<path
 style="fill:none;stroke:#000000;stroke-width:0.79375;stroke-linecap:butt;stroke-linejoin:miter;stroke-dasharray:none;stroke-opacity:1"
 d="m 41.616408,226.57536 1.255155,-27.90487"
 id="path3"
 sodipodi:nodetypes="cc" />
<path
 style="fill:none;stroke:#000000;stroke-width:0.79375;stroke-linecap:butt;stroke-linejoin:miter;stroke-dasharray:none;stroke-opacity:1"
 d="M 46.783811,226.54053 45.105646,199.00445"
 id="path3-0"
 sodipodi:nodetypes="cc" />
<ellipse
 style="opacity:1;fill:none;fill-opacity:1;stroke:#000000;stroke-width:0.79375;stroke-linejoin:round;stroke-miterlimit:4;stroke-dasharray:none;stroke-opacity:1"
 id="path5"
 cx="43.950062"
 cy="197.43642"
 rx="1.8216965"
 ry="1.7390763" />
<path
 style="fill:none;stroke:#000000;stroke-width:0.79375;stroke-linecap:butt;stroke-linejoin:miter;stroke-dasharray:none;stroke-opacity:1"
 d="m 41.37747,223.25876 c 5.060402,0 5.529412,-0.21171 5.529412,-0.21171"
 id="path6"
 sodipodi:nodetypes="cc" />
<path
 style="fill:none;stroke:#000000;stroke-width:0.79374998;stroke-linecap:butt;stroke-linejoin:miter;stroke-opacity:1;stroke-dasharray:none"
 d="m 40.49133,195.88359 c -2.369179,1.28242 0.06281,2.37167 0.06281,2.37167"
 id="path7"
 sodipodi:nodetypes="cc" />
<path
 style="fill:none;stroke:#000000;stroke-width:0.79375;stroke-linecap:butt;stroke-linejoin:miter;stroke-dasharray:none;stroke-opacity:1"
 d="m 38.001672,195.84421 c -2.369179,1.28242 0.06281,2.37167 0.06281,2.37167"
 id="path7-6"
 sodipodi:nodetypes="cc" />
<path
 style="fill:none;stroke:#000000;stroke-width:0.79374998;stroke-linecap:butt;stroke-linejoin:miter;stroke-opacity:1;stroke-dasharray:none"
 d="m 47.331702,195.9174 c 2.369179,1.28242 -0.06281,2.37167 -0.06281,2.37167"
 id="path7-61"
 sodipodi:nodetypes="cc" />
<path
 style="fill:none;stroke:#000000;stroke-width:0.79375;stroke-linecap:butt;stroke-linejoin:miter;stroke-dasharray:none;stroke-opacity:1"
 d="m 49.875973,195.87802 c 2.369179,1.28242 -0.06281,2.37167 -0.06281,2.37167"
 id="path7-6-8"
 sodipodi:nodetypes="cc" />
<text
 xml:space="preserve"
 style="font-style:normal;font-variant:normal;font-weight:normal;font-stretch:normal;font-size:10.5833px;line-height:1.25;font-family:Literata;-inkscape-font-specification:Literata;letter-spacing:0px;word-spacing:0px;fill:#000000;fill-opacity:1;stroke:none;stroke-width:0.264583"
 x="32.360897"
 y="290.23834"
 id="text7"><tspan
 sodipodi:role="line"
 id="tspan7"
 style="stroke-width:0.264583"
 x="32.360897"
 y="290.23834">benlink</tspan></text>
</g>
</svg>
